# xmcd
#
# Track frame offsets:
#	150
#	27026
#	85636
#	115521
#	163658
#	180422
#	209696
#	250298
#	261927
#
# Disc length: 3768 seconds
#
# Revision: 1
# Processed by: cddbd v1.5.2PL0 Copyright (c) Steve Scherf et al.
# Submitted via: audiograbber 1.83.01
#
DISCID=6d0eb609
DTITLE=Grateful Dead - 80-07-01 San Diego Sports Arena, San Diego CA
DYEAR=1900
DGENRE=
TTITLE0=Jack Straw
TTITLE1=Franklin's Tower
TTITLE2=El Paso
TTITLE3=Tennessee Jed
TTITLE4=Lazy Lightning
TTITLE5=Supplication
TTITLE6=Althea
TTITLE7=Lost Sailor
TTITLE8=Saint Of Circumstance
EXTD=
EXTT0=
EXTT1=
EXTT2=
EXTT3=
EXTT4=
EXTT5=
EXTT6=
EXTT7=
EXTT8=
PLAYORDER=
